<?xml version="1.0" standalone="no"?>
<!DOCTYPE svg PUBLIC "-//W3C//DTD SVG 20010904//EN"
 "http://www.w3.org/TR/2001/REC-SVG-20010904/DTD/svg10.dtd">
<svg version="1.0" xmlns="http://www.w3.org/2000/svg"
 width="900.000000pt" height="900.000000pt" viewBox="0 0 900.000000 900.000000"
 preserveAspectRatio="xMidYMid meet">
<metadata>
Created by potrace 1.16, written by Peter Selinger 2001-2019
</metadata>
<g transform="translate(0.000000,900.000000) scale(0.100000,-0.100000)"
fill="#000000" stroke="none">
<path d="M4370 8774 c-74 -14 -200 -64 -270 -106 -25 -15 -85 -49 -133 -75
-49 -26 -121 -69 -160 -95 -40 -26 -76 -48 -80 -48 -4 0 -78 -42 -163 -92 -86
-51 -172 -103 -192 -115 -20 -12 -50 -29 -67 -37 -61 -31 -117 -65 -134 -80
-10 -9 -22 -16 -28 -16 -5 0 -29 -14 -52 -30 -23 -17 -52 -35 -64 -41 -12 -5
-31 -15 -42 -22 -11 -7 -63 -36 -116 -65 -53 -28 -102 -59 -109 -67 -7 -8 -19
-15 -27 -15 -8 0 -35 -13 -60 -30 -24 -16 -47 -30 -50 -30 -4 0 -14 -7 -22
-14 -9 -8 -52 -34 -96 -57 -44 -23 -99 -54 -122 -70 -23 -16 -44 -29 -48 -29
-3 0 -31 -16 -61 -35 -30 -19 -57 -35 -60 -35 -3 0 -20 -10 -37 -22 -17 -13
-65 -40 -107 -61 -41 -21 -80 -43 -87 -49 -7 -5 -81 -49 -165 -97 -390 -223
-390 -223 -479 -311 -47 -47 -92 -97 -100 -111 -22 -40 -70 -141 -84 -174 -40
-98 -39 -52 -42 -1758 -3 -1612 -3 -1639 17 -1715 11 -42 40 -117 64 -167 35
-74 59 -107 132 -181 49 -50 109 -103 133 -119 66 -41 142 -84 177 -100 17 -8
36 -21 44 -29 7 -9 16 -16 21 -16 9 0 128 -68 150 -87 8 -7 22 -13 29 -13 8 0
23 -8 34 -19 12 -10 52 -35 90 -55 38 -20 75 -41 83 -48 17 -14 36 -25 108
-62 71 -38 92 -50 115 -71 11 -10 26 -15 36 -11 14 6 16 134 13 1569 -2 1461
-1 1565 15 1607 37 97 93 194 142 249 53 58 164 141 189 141 7 0 16 4 19 9 12
19 180 91 212 91 56 0 54 27 54 -699 0 -518 3 -671 13 -684 11 -15 76 -17 782
-19 739 -3 772 -4 808 -22 l37 -20 0 -276 c0 -223 -3 -280 -14 -296 -14 -18
-35 -19 -803 -22 -788 -2 -788 -2 -805 -23 -17 -20 -18 -82 -18 -980 0 -628
-3 -960 -10 -964 -19 -12 -10 -35 17 -46 14 -5 46 -23 70 -39 24 -17 49 -30
56 -30 9 0 12 215 12 939 l0 939 25 27 24 26 782 -3 c650 -2 784 -1 797 11 16
12 17 73 17 693 l0 679 25 24 24 25 264 0 c253 0 265 -1 291 -21 l27 -21 -3
-856 c-3 -957 4 -869 -77 -967 -78 -94 -178 -157 -311 -196 -60 -18 -105 -19
-620 -19 -487 0 -558 -2 -578 -16 l-22 -15 0 -785 c0 -713 -2 -787 -17 -810
-19 -30 -12 -39 57 -76 25 -13 64 -37 88 -52 24 -15 51 -30 60 -33 9 -4 46
-25 82 -48 93 -60 229 -115 285 -115 19 0 55 -5 79 -12 44 -12 104 -6 241 24
70 15 191 74 325 159 8 5 29 16 45 24 17 9 48 27 70 40 22 14 60 37 85 50 25
14 63 37 85 50 22 13 49 29 60 35 11 5 32 18 47 28 61 39 167 102 173 102 5 0
70 38 131 78 10 6 29 16 41 22 12 5 41 22 65 37 24 15 59 36 78 46 19 11 66
38 103 61 79 47 184 108 242 141 22 12 81 46 130 75 50 29 115 66 145 83 30
17 109 62 175 101 66 39 133 78 148 86 85 47 316 182 404 237 55 34 104 63
107 63 4 0 25 12 49 27 23 15 62 38 87 51 86 46 235 185 265 248 8 17 21 37
30 44 8 7 15 20 15 29 0 9 4 21 9 27 12 11 37 81 58 159 15 54 17 224 20 1640
3 1412 2 1590 -12 1670 -17 96 -42 177 -73 237 -28 54 -124 179 -170 220 -48
43 -157 115 -232 153 -30 15 -73 40 -95 54 -22 15 -94 58 -160 97 -66 38 -127
74 -136 79 -105 64 -161 96 -181 105 -12 5 -66 37 -118 70 -52 32 -99 59 -103
60 -5 0 -27 13 -50 29 -23 15 -64 40 -92 55 -95 52 -140 78 -155 90 -8 8 -38
25 -67 39 -29 14 -83 45 -120 70 -37 24 -111 68 -163 97 -52 29 -115 65 -139
79 -25 14 -57 33 -73 42 -15 9 -33 21 -40 27 -7 5 -49 29 -92 51 -44 22 -86
47 -95 55 -9 8 -51 34 -94 58 -196 109 -225 125 -267 152 -25 16 -83 50 -130
75 -47 24 -98 55 -115 67 -45 33 -112 64 -195 92 -58 19 -100 25 -190 27 -63
2 -126 1 -140 -1z m555 -1993 c154 -32 318 -173 405 -350 37 -75 74 -224 65
-267 -3 -19 -14 -38 -25 -44 -12 -6 -283 -10 -772 -10 -636 0 -757 -2 -774
-14 -18 -14 -19 -34 -21 -677 -3 -646 -3 -664 -23 -683 -18 -19 -36 -20 -287
-23 -147 -2 -283 -1 -301 2 -63 11 -62 6 -62 667 1 790 11 894 110 1093 34 69
57 98 129 167 93 89 165 131 246 145 72 12 1248 7 1310 -6z m775 -818 c155
-26 305 -154 412 -352 26 -47 47 -99 47 -114 1 -15 8 -41 16 -57 13 -25 15
-108 15 -572 0 -500 -2 -549 -19 -618 -25 -97 -43 -132 -107 -206 -105 -120
-236 -200 -381 -229 -84 -17 -93 -17 -116 -3 -23 16 -24 22 -29 155 -3 76 -4
408 -3 737 2 570 1 600 -17 618 -17 17 -53 18 -750 18 -678 0 -736 1 -768 18
l-35 17 -3 265 c-1 146 0 275 3 288 13 51 6 51 875 48 443 -2 830 -8 860 -13z"/>
</g>
</svg>
